<mxfile host="www.draw.io" modified="2020-01-24T05:35:22.130Z" agent="Mozilla/5.0 (Windows NT 10.0; Win64; x64) AppleWebKit/537.36 (KHTML, like Gecko) Chrome/79.0.3945.130 Safari/537.36" etag="ttJyOndi45t1o1Ph3CG6" version="12.5.6" type="github">
  <diagram id="uw3inCJQCSoo9WiT7ENM" name="第 1 页">
    <mxGraphModel dx="1038" dy="548" grid="1" gridSize="10" guides="1" tooltips="1" connect="1" arrows="1" fold="1" page="1" pageScale="1" pageWidth="827" pageHeight="1169" background="none" math="0" shadow="0">
      <root>
        <mxCell id="0"/>
        <mxCell id="1" parent="0"/>
        <mxCell id="r6jNqbJNBkN99II1Urgm-19" style="edgeStyle=orthogonalEdgeStyle;rounded=0;orthogonalLoop=1;jettySize=auto;html=1;entryX=0.5;entryY=0;entryDx=0;entryDy=0;" edge="1" parent="1" target="r6jNqbJNBkN99II1Urgm-7">
          <mxGeometry relative="1" as="geometry">
            <mxPoint x="95" y="170" as="sourcePoint"/>
            <Array as="points">
              <mxPoint x="95" y="140"/>
              <mxPoint x="630" y="140"/>
            </Array>
          </mxGeometry>
        </mxCell>
        <mxCell id="r6jNqbJNBkN99II1Urgm-29" value="" style="edgeStyle=orthogonalEdgeStyle;rounded=0;orthogonalLoop=1;jettySize=auto;html=1;entryX=0;entryY=0.5;entryDx=0;entryDy=0;" edge="1" parent="1" source="ApKYWPiX7AiaHv-lb321-1" target="r6jNqbJNBkN99II1Urgm-1">
          <mxGeometry relative="1" as="geometry">
            <Array as="points">
              <mxPoint x="110" y="200"/>
              <mxPoint x="110" y="200"/>
            </Array>
          </mxGeometry>
        </mxCell>
        <mxCell id="ApKYWPiX7AiaHv-lb321-1" value="Actor" style="shape=umlActor;verticalLabelPosition=bottom;labelBackgroundColor=#ffffff;verticalAlign=top;html=1;" parent="1" vertex="1">
          <mxGeometry x="80" y="180" width="30" height="70" as="geometry"/>
        </mxCell>
        <mxCell id="r6jNqbJNBkN99II1Urgm-3" value="" style="edgeStyle=orthogonalEdgeStyle;rounded=0;orthogonalLoop=1;jettySize=auto;html=1;" edge="1" parent="1" source="r6jNqbJNBkN99II1Urgm-1" target="r6jNqbJNBkN99II1Urgm-2">
          <mxGeometry relative="1" as="geometry"/>
        </mxCell>
        <mxCell id="r6jNqbJNBkN99II1Urgm-22" style="edgeStyle=orthogonalEdgeStyle;rounded=0;orthogonalLoop=1;jettySize=auto;html=1;exitX=1;exitY=0.75;exitDx=0;exitDy=0;entryX=0;entryY=0.25;entryDx=0;entryDy=0;" edge="1" parent="1" source="r6jNqbJNBkN99II1Urgm-1" target="r6jNqbJNBkN99II1Urgm-4">
          <mxGeometry relative="1" as="geometry"/>
        </mxCell>
        <mxCell id="r6jNqbJNBkN99II1Urgm-1" value="自然语言指令" style="rounded=0;whiteSpace=wrap;html=1;" vertex="1" parent="1">
          <mxGeometry x="140" y="170" width="120" height="60" as="geometry"/>
        </mxCell>
        <mxCell id="r6jNqbJNBkN99II1Urgm-5" value="" style="edgeStyle=orthogonalEdgeStyle;rounded=0;orthogonalLoop=1;jettySize=auto;html=1;" edge="1" parent="1" source="r6jNqbJNBkN99II1Urgm-2" target="r6jNqbJNBkN99II1Urgm-4">
          <mxGeometry relative="1" as="geometry">
            <Array as="points">
              <mxPoint x="410" y="280"/>
              <mxPoint x="410" y="280"/>
            </Array>
          </mxGeometry>
        </mxCell>
        <mxCell id="r6jNqbJNBkN99II1Urgm-2" value="意图检测" style="rounded=0;whiteSpace=wrap;html=1;" vertex="1" parent="1">
          <mxGeometry x="380" y="170" width="120" height="60" as="geometry"/>
        </mxCell>
        <mxCell id="r6jNqbJNBkN99II1Urgm-6" value="" style="edgeStyle=orthogonalEdgeStyle;rounded=0;orthogonalLoop=1;jettySize=auto;html=1;" edge="1" parent="1" source="r6jNqbJNBkN99II1Urgm-4" target="r6jNqbJNBkN99II1Urgm-2">
          <mxGeometry relative="1" as="geometry">
            <Array as="points">
              <mxPoint x="470" y="270"/>
              <mxPoint x="470" y="270"/>
            </Array>
          </mxGeometry>
        </mxCell>
        <mxCell id="r6jNqbJNBkN99II1Urgm-12" value="" style="edgeStyle=orthogonalEdgeStyle;rounded=0;orthogonalLoop=1;jettySize=auto;html=1;" edge="1" parent="1" source="r6jNqbJNBkN99II1Urgm-4" target="r6jNqbJNBkN99II1Urgm-11">
          <mxGeometry relative="1" as="geometry"/>
        </mxCell>
        <mxCell id="r6jNqbJNBkN99II1Urgm-4" value="槽填充" style="rounded=0;whiteSpace=wrap;html=1;" vertex="1" parent="1">
          <mxGeometry x="380" y="310" width="120" height="60" as="geometry"/>
        </mxCell>
        <mxCell id="r6jNqbJNBkN99II1Urgm-24" style="edgeStyle=orthogonalEdgeStyle;rounded=0;orthogonalLoop=1;jettySize=auto;html=1;" edge="1" parent="1" source="r6jNqbJNBkN99II1Urgm-11">
          <mxGeometry relative="1" as="geometry">
            <mxPoint x="100" y="280" as="targetPoint"/>
            <Array as="points">
              <mxPoint x="630" y="410"/>
              <mxPoint x="100" y="410"/>
            </Array>
          </mxGeometry>
        </mxCell>
        <mxCell id="r6jNqbJNBkN99II1Urgm-11" value="动作规划" style="rounded=0;whiteSpace=wrap;html=1;" vertex="1" parent="1">
          <mxGeometry x="570" y="310" width="120" height="60" as="geometry"/>
        </mxCell>
        <mxCell id="r6jNqbJNBkN99II1Urgm-9" value="" style="edgeStyle=orthogonalEdgeStyle;rounded=0;orthogonalLoop=1;jettySize=auto;html=1;entryX=1;entryY=0.5;entryDx=0;entryDy=0;" edge="1" parent="1" source="r6jNqbJNBkN99II1Urgm-7" target="r6jNqbJNBkN99II1Urgm-2">
          <mxGeometry relative="1" as="geometry">
            <mxPoint x="530" y="200" as="targetPoint"/>
          </mxGeometry>
        </mxCell>
        <mxCell id="r6jNqbJNBkN99II1Urgm-7" value="策略梯度算法" style="rounded=0;whiteSpace=wrap;html=1;" vertex="1" parent="1">
          <mxGeometry x="570" y="170" width="120" height="60" as="geometry"/>
        </mxCell>
        <mxCell id="r6jNqbJNBkN99II1Urgm-14" value="" style="edgeStyle=orthogonalEdgeStyle;rounded=0;orthogonalLoop=1;jettySize=auto;html=1;" edge="1" parent="1" source="r6jNqbJNBkN99II1Urgm-13" target="r6jNqbJNBkN99II1Urgm-4">
          <mxGeometry relative="1" as="geometry"/>
        </mxCell>
        <mxCell id="r6jNqbJNBkN99II1Urgm-13" value="环境图像" style="rounded=0;whiteSpace=wrap;html=1;" vertex="1" parent="1">
          <mxGeometry x="140" y="310" width="120" height="60" as="geometry"/>
        </mxCell>
        <mxCell id="r6jNqbJNBkN99II1Urgm-17" value="反馈" style="text;html=1;strokeColor=none;fillColor=none;align=center;verticalAlign=middle;whiteSpace=wrap;rounded=0;" vertex="1" parent="1">
          <mxGeometry x="310" y="420" width="40" height="20" as="geometry"/>
        </mxCell>
        <mxCell id="r6jNqbJNBkN99II1Urgm-20" value="强化学习&lt;br&gt;" style="text;html=1;strokeColor=none;fillColor=none;align=center;verticalAlign=middle;whiteSpace=wrap;rounded=0;" vertex="1" parent="1">
          <mxGeometry x="300" y="110" width="100" height="20" as="geometry"/>
        </mxCell>
        <mxCell id="r6jNqbJNBkN99II1Urgm-21" value="消歧预处理" style="text;html=1;strokeColor=none;fillColor=none;align=center;verticalAlign=middle;whiteSpace=wrap;rounded=0;" vertex="1" parent="1">
          <mxGeometry x="280" y="170" width="70" height="20" as="geometry"/>
        </mxCell>
        <mxCell id="r6jNqbJNBkN99II1Urgm-23" value="消歧预处理" style="text;html=1;strokeColor=none;fillColor=none;align=center;verticalAlign=middle;whiteSpace=wrap;rounded=0;" vertex="1" parent="1">
          <mxGeometry x="300" y="210" width="10" height="110" as="geometry"/>
        </mxCell>
      </root>
    </mxGraphModel>
  </diagram>
</mxfile>
